<?xml version="1.0" encoding="UTF-8" standalone="no"?>
<svg
	xmlns="http://www.w3.org/2000/svg"
	xmlns:xlink="http://www.w3.org/1999/xlink"
	version="1.1"
	width="499.14508"
	height="258.35999"
	id="svg">
  
	<defs id="defs">
		
	<style id="digits-dark" type="text/css">
		  <![CDATA[.digits-dark {fill:#00c23b;fill-opacity:0.2}]]>
	</style>

	<style id="digits-bright" type="text/css">
		  <![CDATA[.digits-bright {fill:#00c23b;fill-opacity:1}]]>
	</style>
	
	<style id="dots" type="text/css">
		  <![CDATA[.dots {fill:#00c23b;fill-opacity:1}]]>
	</style>

	<path
		 d="m 49.427363,85.871603 3.150657,3.134578 c 2.43104,-1.64884 4.188584,-3.858923 6.619631,-5.507753 l 3.66162,-18.649362 3.6616,-18.649372 -2.37528,-2.817518 -2.37528,-2.817513 -3.84244,2.773679 -3.842452,2.773672 -3.567656,18.593127 -3.567551,18.593137 z"
		 id="digit1"
		 />
		 
	<path
		 d="m 40.896305,138.85397 2.926155,3.02232 c 2.431044,-1.64883 4.413087,-3.74667 6.844133,-5.3955 l 3.66162,-18.64936 3.6616,-18.649374 -2.37528,-2.817518 -2.37528,-2.817513 -3.84244,2.773679 -3.842452,2.773672 -3.567656,18.593134 -3.567551,18.59313 z"
		 id="digit2"
		 />
		 
	<path
		 d="m 66.883738,41.268608 -2.615016,-3.10777 3.594216,-3.29385 3.594216,-3.29386 22.827594,0 22.827592,0 2.9236,3.05158 2.92359,3.05157 -3.98651,3.4365 -3.9865,3.4365 -22.743881,-0.0864 -22.743885,-0.0865 z"
		 id="digit3"
		 />
													  
	<path
		d="m 58.128179,94.250969 -2.615016,-3.10777 3.594216,-3.29385 3.594216,-3.29386 22.827594,0 22.827591,0 2.92359,3.05158 2.92359,3.05157 -3.9865,3.4365 -3.9865,3.4365 -22.74388,-0.0864 -22.743885,-0.0865 z"
		id="digit4"
		/>
	
	<path
		 d="m 58.128179,94.250969 -2.615016,-3.10777 3.594216,-3.29385 3.594216,-3.29386 22.827594,0 22.827591,0 2.92359,3.05158 2.92359,3.05157 -3.9865,3.4365 -3.9865,3.4365 -22.74388,-0.0864 -22.743885,-0.0865 z"
		 id="digit4"
		 />
		 
	<path
		 d="m 48.189782,147.41025 -2.615016,-3.10777 3.594216,-3.29385 3.594216,-3.29386 22.827594,0 22.827595,0 2.923593,3.05158 2.92359,3.05157 -3.9865,3.4365 -3.986503,3.4365 -22.743884,-0.0864 -22.743885,-0.0865 z"
		 id="digit5"
		 />	 
		 
	<path
		 d="m 113.55021,85.696818 2.47715,2.573324 3.64657,-2.473255 3.64657,-2.473244 3.66162,-18.649362 3.6616,-18.649372 c -1.69091,-2.150931 -3.59806,-4.103945 -5.48019,-6.084034 -2.56163,1.849124 -4.39363,4.14724 -6.95526,5.996354 l -3.56766,18.593127 -3.56755,18.593137 z"
		 id="digit6"
		 />
			 
	<path
		 d="m 103.98124,139.30297 2.47715,2.57333 3.64656,-2.47326 3.64657,-2.47324 3.66162,-18.64936 3.66161,-18.649381 c -1.74525,-2.155615 -3.62127,-4.19592 -5.4802,-6.25241 -2.56162,1.849124 -4.28137,3.866613 -6.95526,6.16473 l -3.56765,18.593131 -3.56755,18.59314 z"
		 id="digit7"
		 />
	
	<path
		d="m 250.54372,-110.50384 a 6.7350459,6.7350459 0 1 1 -13.4701,0 6.7350459,6.7350459 0 1 1 13.4701,0 z"
		id="dot"
		/>
		
	<path
		d="m 36.7307,13.502187 c -9.452413,0 -17.0625,7.610087 -17.0625,17.0625 l 0,23.96875 c 0,0 158.09181,31.768753 235.21875,34.21875 77.12694,2.449997 224.5625,-18.21875 224.5625,-18.21875 l 0,-39.96875 c 0,-9.452413 -7.61009,-17.0625 -17.0625,-17.0625 z"
		id="reflection"
		class="reflections" />		
					 
	</defs>

	<g shape-rendering="geometricPrecision" id="clock">
	
	<use id="d11" transform="translate(0, 0)" x="0" y="0" xlink:href="#digit1" class="digits-dark" />  
	<use id="d12" transform="translate(0, 0)" x="0" y="0" xlink:href="#digit2" class="digits-dark" />  
	<use id="d13" transform="translate(0, 0)" x="0" y="0" xlink:href="#digit3" class="digits-dark" />  
	<use id="d14" transform="translate(0, 0)" x="0" y="0" xlink:href="#digit4" class="digits-dark" />  
	<use id="d15" transform="translate(0, 0)" x="0" y="0" xlink:href="#digit5" class="digits-dark" />  
	<use id="d16" transform="translate(0, 0)" x="0" y="0" xlink:href="#digit6" class="digits-dark" />  	 	 	 		 	 
	<use id="d17" transform="translate(0, 0)" x="0" y="0" xlink:href="#digit7" class="digits-dark" />  

	<use id="d21" transform="translate(105.964731, 0)" x="0" y="0" xlink:href="#digit1" class="digits-dark" />  
	<use id="d22" transform="translate(105.964731, 0)" x="0" y="0" xlink:href="#digit2" class="digits-dark" />  
	<use id="d23" transform="translate(105.964731, 0)" x="0" y="0" xlink:href="#digit3" class="digits-dark" />  
	<use id="d24" transform="translate(105.964731, 0)" x="0" y="0" xlink:href="#digit4" class="digits-dark" />  
	<use id="d25" transform="translate(105.964731, 0)" x="0" y="0" xlink:href="#digit5" class="digits-dark" />  
	<use id="d26" transform="translate(105.964731, 0)" x="0" y="0" xlink:href="#digit6" class="digits-dark" />  	 	 	 		 	 
	<use id="d27" transform="translate(105.964731, 0)" x="0" y="0" xlink:href="#digit7" class="digits-dark" />  

	<use id="d31" transform="translate(222.25652, 0)" x="0" y="0" xlink:href="#digit1" class="digits-dark" />  
	<use id="d32" transform="translate(222.25652, 0)" x="0" y="0" xlink:href="#digit2" class="digits-dark" />  
	<use id="d33" transform="translate(222.25652, 0)" x="0" y="0" xlink:href="#digit3" class="digits-dark" />  
	<use id="d34" transform="translate(222.25652, 0)" x="0" y="0" xlink:href="#digit4" class="digits-dark" />  
	<use id="d35" transform="translate(222.25652, 0)" x="0" y="0" xlink:href="#digit5" class="digits-dark" />  
	<use id="d36" transform="translate(222.25652, 0)" x="0" y="0" xlink:href="#digit6" class="digits-dark" />  
	<use id="d37" transform="translate(222.25652, 0)" x="0" y="0" xlink:href="#digit7" class="digits-dark" />  	 	 	 	 	  

	<use id="d41" transform="translate(328.221251, 0)" x="0" y="0" xlink:href="#digit1" class="digits-dark" />  
	<use id="d42" transform="translate(328.221251, 0)" x="0" y="0" xlink:href="#digit2" class="digits-dark" />  	 
	<use id="d43" transform="translate(328.221251, 0)" x="0" y="0" xlink:href="#digit3" class="digits-dark" />  
	<use id="d44" transform="translate(328.221251, 0)" x="0" y="0" xlink:href="#digit4" class="digits-dark" />  
	<use id="d45" transform="translate(328.221251, 0)" x="0" y="0" xlink:href="#digit5" class="digits-dark" />  
	<use id="d46" transform="translate(328.221251, 0)" x="0" y="0" xlink:href="#digit6" class="digits-dark" />  
	<use id="d47" transform="translate(328.221251, 0)" x="0" y="0" xlink:href="#digit7" class="digits-dark" />  

	<use id="dot1" transform="translate(7.88695,175.75219)" x="0" y="0" xlink:href="#dot" class="dots" />
	<use id="dot2" transform="translate(0.702901,228.28555)" x="0" y="0" xlink:href="#dot" class="dots" />
	
	</g>	
		
</svg>
